<?xml version="1.0" encoding="UTF-8"?><svg id="Layer_1" xmlns="http://www.w3.org/2000/svg" viewBox="0 0 140.5 31.24"><defs><style>.cls-1{fill:#c9d200;}.cls-2{fill:#003641;}.cls-3{fill:#7db61c;}.cls-4{fill:#00ae9d;}</style></defs><path class="cls-2" d="M90,5h0c-6.4,0-10.3,4.9-10.3,10.9s3.6,10.6,10,10.6h.2c6.3-.1,10.2-4.3,10.2-11,0-5.5-3.4-10.5-10.1-10.5ZM89.9,22.1h0c-2.8,0-4.4-2.6-4.4-6.3s1.6-6.3,4.3-6.3h0c2.7,0,4.3,2.7,4.3,6.3s-1.5,6.3-4.2,6.3ZM112.3,5h0c-6.4,0-10.3,4.9-10.3,10.9s3.6,10.6,10,10.6h.2c6.3-.1,10.2-4.3,10.2-11,0-5.5-3.4-10.5-10.1-10.5ZM112.2,22.1h0c-2.7,0-4.4-2.6-4.3-6.3s1.6-6.3,4.3-6.3,4.3,2.7,4.3,6.3-1.6,6.3-4.3,6.3ZM136.4,15h0c2.4-1,3.4-2.7,3.4-4.4s-1.1-3.6-2.8-4.3c-1.6-.7-3.3-1.1-5.1-1h-1.3c-2.2,0-4.4,0-6.6.5v20.4c1.8.3,3.7.4,5.5.4s1.6,0,2.4-.1c3.1-.2,5-.8,6.2-1.8,1.5-1.1,2.4-2.8,2.4-4.6,0-2.5-1.7-4.6-4.1-5.1h0ZM129.6,9.4c.6-.1,1.2-.1,1.8-.1h.5c1.6.1,2.3.9,2.3,2s-.8,1.8-2.3,2.1c-.4.1-.8.1-1.2.1h-1.1s0-4.1,0-4.1ZM131.9,22.4h-.7c-.5,0-1.1,0-1.6-.1v-5h2.3c1.6.2,2.7.9,2.7,2.4s-1.2,2.5-2.7,2.7h0ZM54.1,5.4v20.8h5.6V8.8c0-2.6-1.4-3.4-5.6-3.4ZM46,13.6c-2.7-1-3.8-1.4-3.8-2.4s.9-1.5,2.6-1.5,3.1.4,4.5,1c.9-2.2,1.3-5.6-4.4-5.6s-8.4,2.8-8.4,6.5,2.3,5,5.9,6.3c2.3.8,3.3,1.4,3.3,2.4s-.9,1.7-2.8,1.7-3.7-.5-5.4-1.3l-1.1,4.6c1.9.9,4,1.3,6.1,1.3,6.1,0,8.9-3.1,8.9-6.6,0-3-1.7-5-5.4-6.4ZM74.3,21.9c-3.8,0-6.1-2.4-6.1-6.1s2.8-6.1,6-6.1,2.6.3,3.9.7c1-2.2.7-5.3-4.1-5.3s-11.6,3.7-11.6,11.1,3.4,10.4,11.2,10.4c1.8.1,3.6-.2,5.2-.9l-.8-4.4c-1.1.4-2.4.6-3.7.6Z"/><path class="cls-3" d="M1.8,0c-.3,0-.5.2-.8.3-.6.3-1,1-1,1.7s.1.6.2.9l9.5,16.3,3.1-5.3h0l5-8.6L14.8,0H1.8Z"/><path class="cls-4" d="M14.7,0l8,13.9h6.1l6.4-11.1c0-.3.2-.5.2-.8,0-1-.8-1.9-1.8-1.9H14.7v-.1Z"/><path class="cls-1" d="M28.4,13.9h-15.6l-3.1,5.3,6.5,11.2.6.6c.9.5,2,.2,2.6-.6l9.5-16.4h-.5v-.1Z"/></svg>